<?xml version="1.0" encoding="utf-8"?>
<!-- Generator: Adobe Illustrator 24.0.1, SVG Export Plug-In . SVG Version: 6.00 Build 0)  -->
<svg version="1.1" id="Layer_1" xmlns="http://www.w3.org/2000/svg" xmlns:xlink="http://www.w3.org/1999/xlink" x="0px" y="0px"
	 viewBox="0 0 850 1125" style="enable-background:new 0 0 850 1125;" xml:space="preserve">
<path d="M829.5,748.8C782.8,868.1,673.3,889,637.6,889c-10.5,0-174.1,9.2-409.4-228.5C38.9,469.2,15.8,263.5,13.8,224.4
	c-2-38.1,8.3-133.6,131.6-204.5c15.3-8.8,45.6-12.7,53.4-4.4c3.5,3.7,107,185.1,109.7,191.2c2.7,6,4.1,11.9,4.1,17.7
	c0,8.3-5.5,18.6-16.6,31.1c-11.1,12.4-23.1,23.8-36.2,34.2c-13,10.4-25.1,21.3-36.2,32.9c-11.1,11.6-16.6,21.1-16.6,28.6
	c0.8,19.4,15.6,88.7,129,194.8c113.4,106.2,168,136.1,173.3,138.2c5.3,2.1,9.6,3.1,13.1,3.1c7,0,16-5.9,26.9-17.7
	s47.5-65.3,59.2-77.1s21.4-17.7,29.2-17.7c5.4,0,11,1.4,16.6,4.3c5.6,2.9,176.2,109.2,179.4,112.8
	C842.5,701.6,836.2,731.7,829.5,748.8"/>
</svg>
