<svg width="21" height="20" viewBox="0 0 21 20" fill="none" xmlns="http://www.w3.org/2000/svg">
<path d="M0.743953 5.39852e-06C0.547419 -0.000744219 0.358635 0.0766001 0.219122 0.215028C0.0796085 0.353455 0.000791368 0.541629 5.38614e-06 0.738163V14.8196C-0.000367464 14.9174 0.0186208 15.0143 0.0558756 15.1047C0.0931304 15.1952 0.147915 15.2773 0.217071 15.3465C0.286227 15.4156 0.368388 15.4704 0.458816 15.5077C0.549244 15.5449 0.646152 15.5639 0.743953 15.5635H3.00908V19.2558C3.00851 19.392 3.04548 19.5257 3.11592 19.6422C3.18636 19.7588 3.28755 19.8537 3.40838 19.9165C3.52922 19.9793 3.66502 20.0076 3.80088 19.9983C3.93675 19.989 4.06742 19.9424 4.17855 19.8637L10.256 15.5635H20.0866C20.2831 15.5628 20.4713 15.4839 20.6097 15.3444C20.7481 15.2049 20.8255 15.0161 20.8247 14.8196V0.738163C20.8239 0.542632 20.7459 0.355332 20.6077 0.21707C20.4694 0.078808 20.2821 0.000787155 20.0866 5.39852e-06H0.743953ZM1.48211 1.48211H19.3426V14.0814H10.0216C9.86862 14.0816 9.71948 14.1292 9.5946 14.2175L4.49119 17.8287V14.8196C4.4904 14.6241 4.41238 14.4368 4.27412 14.2985C4.13586 14.1602 3.94856 14.0822 3.75303 14.0814H1.48211V1.48211ZM5.12947 4.675C5.03204 4.67462 4.93548 4.69346 4.84533 4.73044C4.75518 4.76742 4.67321 4.82182 4.60411 4.89051C4.53501 4.95921 4.48014 5.04086 4.44263 5.13079C4.40512 5.22072 4.38572 5.31717 4.38553 5.41461C4.38515 5.51241 4.40413 5.60932 4.44138 5.69975C4.47863 5.79019 4.53341 5.87235 4.60257 5.94151C4.67173 6.01067 4.75389 6.06545 4.84433 6.1027C4.93476 6.13995 5.03167 6.15894 5.12947 6.15855H15.5013C15.5991 6.15894 15.696 6.13995 15.7865 6.1027C15.8769 6.06545 15.9591 6.01067 16.0282 5.94151C16.0974 5.87235 16.1522 5.79019 16.1894 5.69975C16.2267 5.60932 16.2456 5.51241 16.2453 5.41461C16.2451 5.31717 16.2257 5.22072 16.1882 5.13079C16.1506 5.04086 16.0958 4.95921 16.0267 4.89051C15.9576 4.82182 15.8756 4.76742 15.7854 4.73044C15.6953 4.69346 15.5987 4.67462 15.5013 4.675H5.12947ZM5.12947 9.12276C5.03216 9.12238 4.93572 9.14117 4.84566 9.17806C4.75561 9.21495 4.6737 9.26922 4.60462 9.33776C4.53554 9.40631 4.48064 9.48779 4.44304 9.57755C4.40545 9.66731 4.38591 9.7636 4.38553 9.86092C4.38572 9.95836 4.40512 10.0548 4.44263 10.1447C4.48014 10.2347 4.53501 10.3163 4.60411 10.385C4.67321 10.4537 4.75518 10.5081 4.84533 10.5451C4.93548 10.5821 5.03204 10.6009 5.12947 10.6005H15.5013C15.5987 10.6009 15.6953 10.5821 15.7854 10.5451C15.8756 10.5081 15.9576 10.4537 16.0267 10.385C16.0958 10.3163 16.1506 10.2347 16.1882 10.1447C16.2257 10.0548 16.2451 9.95836 16.2453 9.86092C16.2449 9.7636 16.2253 9.66731 16.1877 9.57755C16.1501 9.48779 16.0952 9.40631 16.0262 9.33776C15.9571 9.26922 15.8752 9.21495 15.7851 9.17806C15.6951 9.14117 15.5986 9.12238 15.5013 9.12276H5.12947Z" fill="white"/>
</svg>
