<svg width="20" height="20" viewBox="0 0 20 20" fill="none" xmlns="http://www.w3.org/2000/svg">
<mask id="path-1-inside-1" fill="white">
<path d="M19.166 13.8268L15.3445 10.0006L18.8909 6.44951C19.2425 6.09908 19.5214 5.6827 19.7117 5.22423C19.902 4.76577 20 4.27424 20 3.77783C20 3.28142 19.902 2.7899 19.7117 2.33143C19.5214 1.87297 19.2425 1.45659 18.8909 1.10616C18.1815 0.397832 17.22 0 16.2176 0C15.2151 0 14.2537 0.397832 13.5442 1.10616L9.99782 4.65311L6.17221 0.831073C5.63876 0.299635 4.91649 0.00125289 4.16356 0.00125289C3.41062 0.00125289 2.68836 0.299635 2.1549 0.831073L0.829691 2.15649C0.298336 2.69003 0 3.4124 0 4.16546C0 4.91851 0.298336 5.64088 0.829691 6.17442L4.65113 10.0006L3.02588 11.6261C2.32715 12.3213 1.77326 13.1482 1.39628 14.059C1.0193 14.9697 0.826722 15.9463 0.829691 16.932V18.3366C0.829691 18.5577 0.917503 18.7697 1.07381 18.926C1.23011 19.0824 1.44211 19.1702 1.66316 19.1702H3.06755C4.05311 19.1731 5.02947 18.9805 5.94009 18.6035C6.85071 18.2265 7.67749 17.6725 8.37256 16.9737L9.99782 15.3481L13.8234 19.1702C14.3569 19.7016 15.0792 20 15.8321 20C16.585 20 17.3073 19.7016 17.8407 19.1702L19.166 17.8448C19.6973 17.3112 19.9956 16.5889 19.9956 15.8358C19.9956 15.0827 19.6973 14.3604 19.166 13.8268ZM14.7236 2.28153C15.0199 1.98719 15.3965 1.78707 15.8063 1.70633C16.216 1.6256 16.6404 1.66786 17.0262 1.8278C17.412 1.98774 17.7418 2.25822 17.9742 2.6052C18.2067 2.95219 18.3313 3.36017 18.3325 3.77783C18.3341 4.05607 18.28 4.33182 18.1733 4.5888C18.0667 4.84579 17.9097 5.07882 17.7116 5.27414L14.1652 8.82109L11.1772 5.83265L14.7236 2.28153ZM7.19321 15.7941C6.6525 16.3374 6.00951 16.7682 5.30137 17.0615C4.59324 17.3548 3.83401 17.5049 3.06755 17.503H2.49662V16.932C2.49474 16.1654 2.64477 15.406 2.93804 14.6978C3.23131 13.9896 3.662 13.3465 4.20523 12.8057L5.83049 11.1802L8.81847 14.1686L7.19321 15.7941ZM17.9908 16.6694L16.6656 17.9948C16.5566 18.1052 16.4269 18.1929 16.2838 18.2527C16.1407 18.3125 15.9872 18.3433 15.8321 18.3433C15.677 18.3433 15.5235 18.3125 15.3804 18.2527C15.2373 18.1929 15.1076 18.1052 14.9986 17.9948L2.00488 4.99905C1.89501 4.88982 1.80781 4.75994 1.74831 4.61687C1.68881 4.47381 1.65818 4.3204 1.65818 4.16546C1.65818 4.01051 1.68881 3.8571 1.74831 3.71404C1.80781 3.57098 1.89501 3.44109 2.00488 3.33186L3.33009 2.00644C3.43931 1.89655 3.56917 1.80935 3.71221 1.74984C3.85525 1.69033 4.00864 1.65969 4.16356 1.65969C4.31848 1.65969 4.47187 1.69033 4.61491 1.74984C4.75794 1.80935 4.88781 1.89655 4.99702 2.00644L5.90133 2.91506L4.40943 4.41137C4.2542 4.56755 4.16706 4.77883 4.16706 4.99905C4.16706 5.21928 4.2542 5.43055 4.40943 5.58674C4.56559 5.74199 4.77683 5.82914 4.99702 5.82914C5.21721 5.82914 5.42846 5.74199 5.58462 5.58674L7.08069 4.0946L8.40173 5.41585L7.7433 6.07856C7.58806 6.23474 7.50093 6.44602 7.50093 6.66624C7.50093 6.88647 7.58806 7.09774 7.7433 7.25393C7.89946 7.40919 8.1107 7.49633 8.33089 7.49633C8.55108 7.49633 8.76232 7.40919 8.91848 7.25393L9.58109 6.59539L10.9021 7.91664L9.41023 9.41294C9.255 9.56913 9.16786 9.7804 9.16786 10.0006C9.16786 10.2208 9.255 10.4321 9.41023 10.5883C9.56639 10.7436 9.77763 10.8307 9.99782 10.8307C10.218 10.8307 10.4293 10.7436 10.5854 10.5883L12.0815 9.09618L13.4025 10.4174L12.7441 11.0801C12.5889 11.2363 12.5017 11.4476 12.5017 11.6678C12.5017 11.888 12.5889 12.0993 12.7441 12.2555C12.9003 12.4108 13.1115 12.4979 13.3317 12.4979C13.5519 12.4979 13.7631 12.4108 13.9193 12.2555L14.5819 11.597L15.9029 12.9182L14.411 14.4145C14.2558 14.5707 14.1687 14.782 14.1687 15.0022C14.1687 15.2224 14.2558 15.4337 14.411 15.5899C14.5672 15.7451 14.7784 15.8323 14.9986 15.8323C15.2188 15.8323 15.4301 15.7451 15.5862 15.5899L17.0823 14.0977L17.9908 15.0022C18.1006 15.1114 18.1878 15.2413 18.2473 15.3844C18.3068 15.5274 18.3375 15.6809 18.3375 15.8358C18.3375 15.9907 18.3068 16.1442 18.2473 16.2872C18.1878 16.4303 18.1006 16.5602 17.9908 16.6694Z"/>
</mask>
<path d="M19.166 13.8268L15.3445 10.0006L18.8909 6.44951C19.2425 6.09908 19.5214 5.6827 19.7117 5.22423C19.902 4.76577 20 4.27424 20 3.77783C20 3.28142 19.902 2.7899 19.7117 2.33143C19.5214 1.87297 19.2425 1.45659 18.8909 1.10616C18.1815 0.397832 17.22 0 16.2176 0C15.2151 0 14.2537 0.397832 13.5442 1.10616L9.99782 4.65311L6.17221 0.831073C5.63876 0.299635 4.91649 0.00125289 4.16356 0.00125289C3.41062 0.00125289 2.68836 0.299635 2.1549 0.831073L0.829691 2.15649C0.298336 2.69003 0 3.4124 0 4.16546C0 4.91851 0.298336 5.64088 0.829691 6.17442L4.65113 10.0006L3.02588 11.6261C2.32715 12.3213 1.77326 13.1482 1.39628 14.059C1.0193 14.9697 0.826722 15.9463 0.829691 16.932V18.3366C0.829691 18.5577 0.917503 18.7697 1.07381 18.926C1.23011 19.0824 1.44211 19.1702 1.66316 19.1702H3.06755C4.05311 19.1731 5.02947 18.9805 5.94009 18.6035C6.85071 18.2265 7.67749 17.6725 8.37256 16.9737L9.99782 15.3481L13.8234 19.1702C14.3569 19.7016 15.0792 20 15.8321 20C16.585 20 17.3073 19.7016 17.8407 19.1702L19.166 17.8448C19.6973 17.3112 19.9956 16.5889 19.9956 15.8358C19.9956 15.0827 19.6973 14.3604 19.166 13.8268ZM14.7236 2.28153C15.0199 1.98719 15.3965 1.78707 15.8063 1.70633C16.216 1.6256 16.6404 1.66786 17.0262 1.8278C17.412 1.98774 17.7418 2.25822 17.9742 2.6052C18.2067 2.95219 18.3313 3.36017 18.3325 3.77783C18.3341 4.05607 18.28 4.33182 18.1733 4.5888C18.0667 4.84579 17.9097 5.07882 17.7116 5.27414L14.1652 8.82109L11.1772 5.83265L14.7236 2.28153ZM7.19321 15.7941C6.6525 16.3374 6.00951 16.7682 5.30137 17.0615C4.59324 17.3548 3.83401 17.5049 3.06755 17.503H2.49662V16.932C2.49474 16.1654 2.64477 15.406 2.93804 14.6978C3.23131 13.9896 3.662 13.3465 4.20523 12.8057L5.83049 11.1802L8.81847 14.1686L7.19321 15.7941ZM17.9908 16.6694L16.6656 17.9948C16.5566 18.1052 16.4269 18.1929 16.2838 18.2527C16.1407 18.3125 15.9872 18.3433 15.8321 18.3433C15.677 18.3433 15.5235 18.3125 15.3804 18.2527C15.2373 18.1929 15.1076 18.1052 14.9986 17.9948L2.00488 4.99905C1.89501 4.88982 1.80781 4.75994 1.74831 4.61687C1.68881 4.47381 1.65818 4.3204 1.65818 4.16546C1.65818 4.01051 1.68881 3.8571 1.74831 3.71404C1.80781 3.57098 1.89501 3.44109 2.00488 3.33186L3.33009 2.00644C3.43931 1.89655 3.56917 1.80935 3.71221 1.74984C3.85525 1.69033 4.00864 1.65969 4.16356 1.65969C4.31848 1.65969 4.47187 1.69033 4.61491 1.74984C4.75794 1.80935 4.88781 1.89655 4.99702 2.00644L5.90133 2.91506L4.40943 4.41137C4.2542 4.56755 4.16706 4.77883 4.16706 4.99905C4.16706 5.21928 4.2542 5.43055 4.40943 5.58674C4.56559 5.74199 4.77683 5.82914 4.99702 5.82914C5.21721 5.82914 5.42846 5.74199 5.58462 5.58674L7.08069 4.0946L8.40173 5.41585L7.7433 6.07856C7.58806 6.23474 7.50093 6.44602 7.50093 6.66624C7.50093 6.88647 7.58806 7.09774 7.7433 7.25393C7.89946 7.40919 8.1107 7.49633 8.33089 7.49633C8.55108 7.49633 8.76232 7.40919 8.91848 7.25393L9.58109 6.59539L10.9021 7.91664L9.41023 9.41294C9.255 9.56913 9.16786 9.7804 9.16786 10.0006C9.16786 10.2208 9.255 10.4321 9.41023 10.5883C9.56639 10.7436 9.77763 10.8307 9.99782 10.8307C10.218 10.8307 10.4293 10.7436 10.5854 10.5883L12.0815 9.09618L13.4025 10.4174L12.7441 11.0801C12.5889 11.2363 12.5017 11.4476 12.5017 11.6678C12.5017 11.888 12.5889 12.0993 12.7441 12.2555C12.9003 12.4108 13.1115 12.4979 13.3317 12.4979C13.5519 12.4979 13.7631 12.4108 13.9193 12.2555L14.5819 11.597L15.9029 12.9182L14.411 14.4145C14.2558 14.5707 14.1687 14.782 14.1687 15.0022C14.1687 15.2224 14.2558 15.4337 14.411 15.5899C14.5672 15.7451 14.7784 15.8323 14.9986 15.8323C15.2188 15.8323 15.4301 15.7451 15.5862 15.5899L17.0823 14.0977L17.9908 15.0022C18.1006 15.1114 18.1878 15.2413 18.2473 15.3844C18.3068 15.5274 18.3375 15.6809 18.3375 15.8358C18.3375 15.9907 18.3068 16.1442 18.2473 16.2872C18.1878 16.4303 18.1006 16.5602 17.9908 16.6694Z" fill="white" stroke="#870904" stroke-width="0.4" mask="url(#path-1-inside-1)"/>
</svg>
