<svg width="22" height="20" viewBox="0 0 22 20" fill="none" xmlns="http://www.w3.org/2000/svg">
<path fill-rule="evenodd" clip-rule="evenodd" d="M11.4728 0.190476C11.1554 -0.0634921 10.7109 -0.0634921 10.3935 0.190476C7.0284 3.61905 3.59983 6.98413 0.234749 10.4127C-0.463664 11.1111 0.552209 12.1905 1.25062 11.4921L1.82205 10.9206V19.3016C1.82205 19.6825 2.203 20 2.58396 20H9.06015C9.50459 20 9.82205 19.6825 9.82205 19.3016V14.4762H12.0443V19.3016C12.0443 19.6825 12.3617 20 12.8062 20H19.2824C19.6633 20 19.9808 19.6825 19.9808 19.3016V10.9206L20.5522 11.4921C21.2506 12.127 22.33 11.1111 21.6316 10.4127C18.2665 6.98413 14.8379 3.61905 11.4728 0.190476ZM18.5205 18.5397H13.5046V13.7143C13.5046 13.2698 13.1871 12.9524 12.8062 12.9524H9.06015C8.67919 12.9524 8.29824 13.2698 8.29824 13.7143V18.5397H3.34586V9.39683L10.9014 1.84127L18.5205 9.39683V18.5397Z" fill="#F8B400"/>
</svg>
